<svg width="32" height="32" viewBox="0 0 32 32" fill="none" xmlns="http://www.w3.org/2000/svg">
<path fill-rule="evenodd" clip-rule="evenodd" d="M26.2169 9.70743C26.4512 9.70743 26.6855 9.81157 26.8417 10.0198C26.9979 10.2281 27.05 10.4884 26.9458 10.7227L25.0454 16.9967C24.681 18.2202 23.5876 19.0273 22.312 19.0273H14.1116C12.862 19.0273 11.7425 18.2202 11.3781 17.0227L8.98305 9.29091C8.85289 8.84834 8.46239 8.56198 7.9938 8.56198H5.78099C5.33843 8.56198 5 8.22355 5 7.78099C5 7.33843 5.33843 7 5.78099 7H7.9938C9.16528 7 10.1545 7.72892 10.493 8.82231L10.7793 9.70743H26.2169ZM14.2937 19.9124C12.966 19.9124 11.8987 21.0058 11.8987 22.3334C11.8987 23.6872 12.966 24.7805 14.2937 24.7805C15.6214 24.7805 16.6887 23.6872 16.6887 22.3334C16.6887 20.9797 15.6214 19.9124 14.2937 19.9124ZM21.7653 19.9124C20.4376 19.9124 19.3702 21.0058 19.3702 22.3334C19.3702 23.6872 20.4376 24.7805 21.7653 24.7805C23.093 24.7805 24.1603 23.6872 24.1603 22.3334C24.1343 20.9797 23.0669 19.9124 21.7653 19.9124Z" fill="white"/>
</svg>
