<svg width="32" height="32" viewBox="0 0 32 32" fill="none" xmlns="http://www.w3.org/2000/svg">
<path fill-rule="evenodd" clip-rule="evenodd" d="M13.9799 20.4789C10.3879 20.4789 7.47595 17.5669 7.47595 13.9749C7.47595 10.3829 10.3879 7.47095 13.9799 7.47095C17.572 7.47095 20.4839 10.3829 20.4839 13.9749C20.4839 15.0262 20.2344 16.0193 19.7915 16.8982C19.576 17.3258 19.6191 17.8535 19.9577 18.1921L24.3985 22.6329C24.7891 23.0234 24.7891 23.6566 24.3985 24.0471L24.045 24.4007C23.6545 24.7912 23.0213 24.7912 22.6308 24.4007L18.1876 19.9575C17.8495 19.6194 17.3225 19.5759 16.8952 19.7905C16.0183 20.2309 15.0281 20.4789 13.9799 20.4789ZM13.9799 17.9789C16.1912 17.9789 17.9839 16.1862 17.9839 13.9749C17.9839 11.7636 16.1912 9.97095 13.9799 9.97095C11.7686 9.97095 9.97595 11.7636 9.97595 13.9749C9.97595 16.1862 11.7686 17.9789 13.9799 17.9789Z" fill="white"/>
</svg>
